<mxfile host="app.diagrams.net" modified="2022-10-05T03:19:17.835Z" agent="5.0 (Windows NT 10.0; Win64; x64) AppleWebKit/537.36 (KHTML, like Gecko) Chrome/104.0.5112.102 Safari/537.36 OPR/90.0.4480.117 (Edition std-1)" etag="qs1qU9YKyV82inDOBSAs" version="20.4.0" type="github">
  <diagram name="Page-1" id="5f0bae14-7c28-e335-631c-24af17079c00">
    <mxGraphModel dx="1151" dy="637" grid="1" gridSize="10" guides="1" tooltips="1" connect="1" arrows="1" fold="1" page="1" pageScale="1" pageWidth="1100" pageHeight="850" background="none" math="0" shadow="0">
      <root>
        <mxCell id="0" />
        <mxCell id="1" parent="0" />
        <mxCell id="39150e848f15840c-1" value="Front" style="verticalAlign=top;align=left;spacingTop=8;spacingLeft=2;spacingRight=12;shape=cube;size=10;direction=south;fontStyle=4;html=1;rounded=0;shadow=0;comic=0;labelBackgroundColor=none;strokeWidth=1;fontFamily=Verdana;fontSize=12" parent="1" vertex="1">
          <mxGeometry x="130" y="70" width="390" height="170" as="geometry" />
        </mxCell>
        <mxCell id="39150e848f15840c-2" value="Back&lt;br&gt;" style="verticalAlign=top;align=left;spacingTop=8;spacingLeft=2;spacingRight=12;shape=cube;size=10;direction=south;fontStyle=4;html=1;rounded=0;shadow=0;comic=0;labelBackgroundColor=none;strokeWidth=1;fontFamily=Verdana;fontSize=12" parent="1" vertex="1">
          <mxGeometry x="670" y="70" width="380" height="340" as="geometry" />
        </mxCell>
        <mxCell id="qYBDqv4iTwpxMZwA7B_e-26" style="edgeStyle=orthogonalEdgeStyle;rounded=0;orthogonalLoop=1;jettySize=auto;html=1;entryX=1;entryY=0.5;entryDx=0;entryDy=0;entryPerimeter=0;strokeColor=default;endArrow=none;endFill=0;" edge="1" parent="1" source="39150e848f15840c-5" target="qYBDqv4iTwpxMZwA7B_e-25">
          <mxGeometry relative="1" as="geometry" />
        </mxCell>
        <mxCell id="39150e848f15840c-5" value="app" style="shape=component;align=left;spacingLeft=36;rounded=0;shadow=0;comic=0;labelBackgroundColor=none;strokeWidth=1;fontFamily=Verdana;fontSize=12;html=1;" parent="1" vertex="1">
          <mxGeometry x="390" y="110" width="80" height="60" as="geometry" />
        </mxCell>
        <mxCell id="qYBDqv4iTwpxMZwA7B_e-34" style="edgeStyle=orthogonalEdgeStyle;rounded=0;orthogonalLoop=1;jettySize=auto;html=1;strokeColor=default;endArrow=none;endFill=0;" edge="1" parent="1" source="qYBDqv4iTwpxMZwA7B_e-2" target="qYBDqv4iTwpxMZwA7B_e-32">
          <mxGeometry relative="1" as="geometry">
            <Array as="points">
              <mxPoint x="270" y="145" />
              <mxPoint x="270" y="145" />
            </Array>
          </mxGeometry>
        </mxCell>
        <mxCell id="qYBDqv4iTwpxMZwA7B_e-2" value="apiclient" style="shape=component;align=left;spacingLeft=36;rounded=0;shadow=0;comic=0;labelBackgroundColor=none;strokeWidth=1;fontFamily=Verdana;fontSize=12;html=1;" vertex="1" parent="1">
          <mxGeometry x="140" y="110" width="120" height="60" as="geometry" />
        </mxCell>
        <mxCell id="qYBDqv4iTwpxMZwA7B_e-16" value="" style="shape=image;html=1;verticalAlign=top;verticalLabelPosition=bottom;labelBackgroundColor=#ffffff;imageAspect=0;aspect=fixed;image=https://cdn4.iconfinder.com/data/icons/file-extension-3/115/eps_extension_file_name-27-128.png" vertex="1" parent="1">
          <mxGeometry x="440" y="190" width="128" height="128" as="geometry" />
        </mxCell>
        <mxCell id="qYBDqv4iTwpxMZwA7B_e-22" value="" style="html=1;verticalLabelPosition=bottom;align=center;labelBackgroundColor=#ffffff;verticalAlign=top;strokeWidth=2;strokeColor=#0080F0;shadow=0;dashed=0;shape=mxgraph.ios7.icons.cup;" vertex="1" parent="1">
          <mxGeometry x="990" y="340" width="110" height="113" as="geometry" />
        </mxCell>
        <mxCell id="qYBDqv4iTwpxMZwA7B_e-23" value="Blueprint api controller" style="shape=component;align=left;spacingLeft=36;rounded=0;shadow=0;comic=0;labelBackgroundColor=none;strokeWidth=1;fontFamily=Verdana;fontSize=12;html=1;" vertex="1" parent="1">
          <mxGeometry x="720" y="110" width="190" height="60" as="geometry" />
        </mxCell>
        <mxCell id="qYBDqv4iTwpxMZwA7B_e-25" value="" style="shape=providedRequiredInterface;html=1;verticalLabelPosition=bottom;sketch=0;direction=west;" vertex="1" parent="1">
          <mxGeometry x="580" y="170" width="20" height="20" as="geometry" />
        </mxCell>
        <mxCell id="qYBDqv4iTwpxMZwA7B_e-27" style="edgeStyle=orthogonalEdgeStyle;rounded=0;orthogonalLoop=1;jettySize=auto;html=1;entryX=0;entryY=0.5;entryDx=0;entryDy=0;entryPerimeter=0;strokeColor=default;endArrow=none;endFill=0;exitX=0.087;exitY=0.481;exitDx=0;exitDy=0;exitPerimeter=0;" edge="1" parent="1" source="qYBDqv4iTwpxMZwA7B_e-23" target="qYBDqv4iTwpxMZwA7B_e-25">
          <mxGeometry relative="1" as="geometry">
            <mxPoint x="480" y="150" as="sourcePoint" />
            <mxPoint x="590" y="190" as="targetPoint" />
            <Array as="points">
              <mxPoint x="737" y="140" />
              <mxPoint x="680" y="140" />
              <mxPoint x="680" y="180" />
            </Array>
          </mxGeometry>
        </mxCell>
        <mxCell id="qYBDqv4iTwpxMZwA7B_e-29" style="edgeStyle=orthogonalEdgeStyle;rounded=0;orthogonalLoop=1;jettySize=auto;html=1;entryX=0.5;entryY=1;entryDx=0;entryDy=0;strokeColor=default;endArrow=none;endFill=0;" edge="1" parent="1" source="qYBDqv4iTwpxMZwA7B_e-28" target="qYBDqv4iTwpxMZwA7B_e-23">
          <mxGeometry relative="1" as="geometry" />
        </mxCell>
        <mxCell id="qYBDqv4iTwpxMZwA7B_e-28" value="" style="shape=providedRequiredInterface;html=1;verticalLabelPosition=bottom;sketch=0;direction=north;" vertex="1" parent="1">
          <mxGeometry x="805" y="190" width="20" height="20" as="geometry" />
        </mxCell>
        <mxCell id="qYBDqv4iTwpxMZwA7B_e-31" style="edgeStyle=orthogonalEdgeStyle;rounded=0;orthogonalLoop=1;jettySize=auto;html=1;strokeColor=default;endArrow=none;endFill=0;" edge="1" parent="1" source="qYBDqv4iTwpxMZwA7B_e-30">
          <mxGeometry relative="1" as="geometry">
            <mxPoint x="815" y="220" as="targetPoint" />
          </mxGeometry>
        </mxCell>
        <mxCell id="qYBDqv4iTwpxMZwA7B_e-30" value="Blueprint services" style="shape=component;align=left;spacingLeft=36;rounded=0;shadow=0;comic=0;labelBackgroundColor=none;strokeWidth=1;fontFamily=Verdana;fontSize=12;html=1;" vertex="1" parent="1">
          <mxGeometry x="720" y="224" width="190" height="56" as="geometry" />
        </mxCell>
        <mxCell id="qYBDqv4iTwpxMZwA7B_e-35" style="edgeStyle=orthogonalEdgeStyle;rounded=0;orthogonalLoop=1;jettySize=auto;html=1;entryX=0.175;entryY=0.522;entryDx=0;entryDy=0;entryPerimeter=0;strokeColor=default;endArrow=none;endFill=0;" edge="1" parent="1" source="qYBDqv4iTwpxMZwA7B_e-32" target="39150e848f15840c-5">
          <mxGeometry relative="1" as="geometry">
            <Array as="points">
              <mxPoint x="404" y="140" />
            </Array>
          </mxGeometry>
        </mxCell>
        <mxCell id="qYBDqv4iTwpxMZwA7B_e-32" value="" style="shape=providedRequiredInterface;html=1;verticalLabelPosition=bottom;sketch=0;direction=east;" vertex="1" parent="1">
          <mxGeometry x="307.5" y="130" width="32.5" height="30" as="geometry" />
        </mxCell>
        <mxCell id="qYBDqv4iTwpxMZwA7B_e-36" value="Blueprint Persistence" style="shape=component;align=left;spacingLeft=36;rounded=0;shadow=0;comic=0;labelBackgroundColor=none;strokeWidth=1;fontFamily=Verdana;fontSize=12;html=1;" vertex="1" parent="1">
          <mxGeometry x="720" y="340" width="190" height="60" as="geometry" />
        </mxCell>
        <mxCell id="qYBDqv4iTwpxMZwA7B_e-40" style="edgeStyle=orthogonalEdgeStyle;rounded=0;orthogonalLoop=1;jettySize=auto;html=1;entryX=0.5;entryY=0;entryDx=0;entryDy=0;strokeColor=default;endArrow=none;endFill=0;" edge="1" parent="1" source="qYBDqv4iTwpxMZwA7B_e-38" target="qYBDqv4iTwpxMZwA7B_e-36">
          <mxGeometry relative="1" as="geometry" />
        </mxCell>
        <mxCell id="qYBDqv4iTwpxMZwA7B_e-42" style="edgeStyle=orthogonalEdgeStyle;rounded=0;orthogonalLoop=1;jettySize=auto;html=1;entryX=0.5;entryY=1;entryDx=0;entryDy=0;strokeColor=default;endArrow=none;endFill=0;" edge="1" parent="1" source="qYBDqv4iTwpxMZwA7B_e-38" target="qYBDqv4iTwpxMZwA7B_e-30">
          <mxGeometry relative="1" as="geometry" />
        </mxCell>
        <mxCell id="qYBDqv4iTwpxMZwA7B_e-38" value="" style="shape=providedRequiredInterface;html=1;verticalLabelPosition=bottom;sketch=0;direction=north;" vertex="1" parent="1">
          <mxGeometry x="805" y="298" width="20" height="20" as="geometry" />
        </mxCell>
      </root>
    </mxGraphModel>
  </diagram>
</mxfile>
